<svg width="24" height="24" viewBox="0 0 24 24" fill="none" xmlns="http://www.w3.org/2000/svg">
<path d="M16.2922 5.60958L16.2982 5.60259L16.3037 5.59518C16.5943 5.20351 16.5623 4.64807 16.2071 4.29289C15.8166 3.90237 15.1834 3.90237 14.7929 4.29289L7.7929 11.2929L7.78642 11.2994L7.78043 11.3063L7.70782 11.3904L7.70178 11.3974L7.69628 11.4048C7.40567 11.7965 7.43772 12.3519 7.7929 12.7071L14.7929 19.7071L14.7994 19.7136L14.8063 19.7196L14.8904 19.7922L14.8974 19.7982L14.9048 19.8037C15.2965 20.0943 15.8519 20.0623 16.2071 19.7071L16.2136 19.7006L16.2196 19.6937L16.2922 19.6096L16.2982 19.6026L16.3037 19.5952C16.5943 19.2035 16.5623 18.6481 16.2071 18.2929L9.91455 12L16.2071 5.7071L16.2136 5.70063L16.2196 5.6937L16.2922 5.60958Z" fill="#101520" stroke="#101520" stroke-width="0.5"/>
</svg>
