<svg width="25" height="24" viewBox="0 0 25 24" fill="none" xmlns="http://www.w3.org/2000/svg">
<path d="M17.3145 3C18.6555 3 19.9455 3.53 20.8945 4.481C21.8445 5.43 22.3755 6.71 22.3755 8.05V15.95C22.3755 18.74 20.1055 21 17.3145 21H7.43549C4.64449 21 2.37549 18.74 2.37549 15.95V8.05C2.37549 5.26 4.63449 3 7.43549 3H17.3145ZM18.4455 8.2C18.2355 8.189 18.0355 8.26 17.8845 8.4L13.3755 12C12.7955 12.481 11.9645 12.481 11.3755 12L6.87549 8.4C6.56449 8.17 6.13449 8.2 5.87549 8.47C5.60549 8.74 5.57549 9.17 5.80449 9.47L5.93549 9.6L10.4855 13.15C11.0455 13.59 11.7245 13.83 12.4355 13.83C13.1445 13.83 13.8355 13.59 14.3945 13.15L18.9055 9.54L18.9855 9.46C19.2245 9.17 19.2245 8.75 18.9745 8.46C18.8355 8.311 18.6445 8.22 18.4455 8.2Z" fill="#2F74FA"/>
</svg>
