<svg width="25" height="24" viewBox="0 0 25 24" fill="none" xmlns="http://www.w3.org/2000/svg">
<path d="M21.1456 8.36243L21.1456 8.36245L21.1472 8.36368C21.5403 8.66434 21.7682 9.11556 21.775 9.59394V18.3173C21.775 19.7428 20.6 20.9053 19.152 20.9053H17.2472C17.0358 20.8999 16.876 20.7363 16.876 20.5363V17.4603C16.876 16.2084 15.8506 15.1913 14.592 15.1913L11.701 15.1912L11.7003 15.1913C10.4511 15.1996 9.432 16.2156 9.432 17.4603V20.3448C9.42003 20.4028 9.413 20.4642 9.413 20.5263C9.413 20.7328 9.24007 20.9053 9.022 20.9053H7.098C5.65002 20.9053 4.475 19.7428 4.475 18.3173V9.61074C4.47984 9.12389 4.7074 8.67271 5.1165 8.36187L5.11652 8.3619L5.11858 8.36025L11.6661 3.10666C11.6662 3.10658 11.6663 3.1065 11.6664 3.10642C12.518 2.43244 13.7043 2.43259 14.5527 3.10451C14.5528 3.10455 14.5529 3.10459 14.5529 3.10464L21.1456 8.36243ZM17.2256 22.6052L17.2256 22.6053H17.228H19.152C21.5355 22.6053 23.475 20.6823 23.475 18.3173L23.475 9.58225L23.475 9.58093C23.4616 8.56868 22.9895 7.63211 22.1925 7.02439C22.1922 7.02416 22.1919 7.02394 22.1916 7.02371L15.6114 1.77507L15.6111 1.77488C14.1387 0.608006 12.0822 0.60808 10.6069 1.77687L10.6064 1.77726L4.0725 7.02139C3.25748 7.63911 2.78531 8.5778 2.77501 9.60225H2.775V9.60325V18.3173C2.775 20.6823 4.71455 22.6053 7.098 22.6053H9.022C10.095 22.6053 10.9816 21.7975 11.0994 20.7614C11.1217 20.6857 11.132 20.6068 11.132 20.5263V17.4603C11.132 17.1508 11.391 16.8931 11.7062 16.8913H14.592C14.9159 16.8913 15.176 17.1486 15.176 17.4603V20.5363C15.176 21.6697 16.0705 22.578 17.2256 22.6052Z" fill="#94A3B8" stroke="#94A3B8" stroke-width="0.2"/>
</svg>
