<svg width="25" height="24" viewBox="0 0 25 24" fill="none" xmlns="http://www.w3.org/2000/svg">
<path d="M18.6876 8.06569L18.6876 8.06571C18.9835 8.4297 18.9278 8.96455 18.5642 9.26127L18.5641 9.2614L14.1201 12.8734L14.1192 12.8741C13.5392 13.3344 12.8453 13.5648 12.152 13.5648C11.4608 13.5648 10.7719 13.3364 10.1959 12.8802L10.1952 12.8797L5.7103 9.2637L18.6876 8.06569ZM18.6876 8.06569C18.3909 7.70112 17.8559 7.6441 17.4907 7.94235L13.0558 11.5475C13.0557 11.5476 13.0555 11.5477 13.0554 11.5478C12.5248 11.9686 11.7837 11.9684 11.2575 11.5517C11.2573 11.5516 11.2572 11.5515 11.2571 11.5514L6.77676 7.93994L6.77668 7.93988C6.41156 7.6462 5.87693 7.70426 5.58141 8.06771L5.58108 8.06812M18.6876 8.06569L5.58108 8.06812M5.58108 8.06812C5.2876 8.43299 5.34415 8.96891 5.71023 9.26365L5.58108 8.06812ZM21.1086 19.9508L21.1086 19.9508C22.3144 18.748 22.975 17.0556 22.975 15.188V8.32C22.975 4.66934 20.4265 1.9 17.034 1.9H7.216C3.8235 1.9 1.275 4.66934 1.275 8.32V15.188C1.275 17.0556 1.93556 18.748 3.14138 19.9508L3.14142 19.9508C4.22474 21.0301 5.62837 21.6 7.197 21.6H17.05C18.6216 21.6 20.0262 21.0291 21.1086 19.9508ZM4.34166 18.7462L4.34159 18.7462C3.46302 17.8705 2.975 16.6083 2.975 15.188V8.32C2.975 5.57213 4.76581 3.6 7.216 3.6H17.034C19.4842 3.6 21.275 5.57213 21.275 8.32V15.188C21.275 16.6084 20.7879 17.8705 19.9084 18.7461L19.9083 18.7462C19.1527 19.5009 18.1676 19.8993 17.0531 19.9L17.0488 19.8996L17.0487 19.8996C17.0461 19.8994 17.0379 19.8987 17.0282 19.8995C17.0268 19.8996 17.0253 19.8998 17.0235 19.9H7.2C6.08522 19.9 5.09803 19.5016 4.34166 18.7462ZM17.0548 19.9002L17.0548 19.9002L17.0548 19.9002Z" fill="#94A3B8" stroke="#94A3B8" stroke-width="0.2"/>
</svg>
