<svg width="25" height="24" viewBox="0 0 25 24" fill="none" xmlns="http://www.w3.org/2000/svg">
<path d="M6.63497 7.30634C6.6249 10.2815 9.03652 12.7093 12.0137 12.7185H12.014H12.046C15.0292 12.7185 17.455 10.2927 17.455 7.30951C17.455 4.32631 15.0293 1.89951 12.046 1.89951C9.06188 1.89951 6.63506 4.32614 6.63497 7.30634ZM6.63497 7.30634C6.63497 7.3064 6.63497 7.30646 6.63497 7.30651H6.73497L6.63497 7.30617C6.63497 7.30623 6.63497 7.30628 6.63497 7.30634ZM12.0459 21.9699H12.046C13.7462 21.9699 15.7399 21.8751 17.3111 21.3625C18.0974 21.106 18.7856 20.7425 19.278 20.227C19.7727 19.7091 20.065 19.0425 20.065 18.1929C20.065 17.2746 19.7077 16.5736 19.1383 16.0432C18.572 15.5155 17.7989 15.1593 16.9671 14.9174C15.3038 14.4339 13.372 14.3988 12.2895 14.3961H12.2892L11.8364 14.3964L11.836 14.3964C10.1485 14.4045 8.20638 14.5162 6.68355 15.0353C5.92139 15.2952 5.25693 15.6594 4.78229 16.1706C4.30549 16.684 4.025 17.3408 4.025 18.1729C4.025 19.0912 4.38243 19.7922 4.95197 20.3227C5.51851 20.8503 6.29179 21.2066 7.12389 21.4484C8.78763 21.932 10.7199 21.9671 11.8025 21.9697H11.8027L12.0459 21.9699ZM8.26298 7.30984V7.30951C8.26298 5.22377 9.9602 3.52751 12.046 3.52751C14.1308 3.52751 15.827 5.22372 15.827 7.30951C15.827 9.39432 14.1307 11.0915 12.046 11.0915L12.0174 11.0915C12.0173 11.0915 12.0172 11.0915 12.0171 11.0915C9.94044 11.0836 8.25618 9.38854 8.26298 7.30984ZM5.725 18.1729C5.725 17.5163 6.21048 16.9963 7.26973 16.6372C8.32658 16.279 9.91862 16.0959 12.046 16.0959C14.1728 16.0959 15.7643 16.2807 16.8206 16.6423C17.879 17.0045 18.365 17.5292 18.365 18.1929C18.365 18.8496 17.8797 19.3695 16.8209 19.7286C15.7644 20.0869 14.1729 20.2699 12.046 20.2699C9.91866 20.2699 8.32673 20.0851 7.27 19.7235C6.21125 19.3613 5.725 18.8366 5.725 18.1729Z" fill="#94A3B8" stroke="#94A3B8" stroke-width="0.2"/>
</svg>
