<svg width="25" height="24" viewBox="0 0 25 24" fill="none" xmlns="http://www.w3.org/2000/svg">
<path d="M16.9281 8.41901L16.9285 8.41937C17.1514 8.64337 17.2333 8.97297 17.138 9.2739C17.138 9.27397 17.138 9.27404 17.1379 9.27412L15.5461 14.3626L16.9281 8.41901ZM16.9281 8.41901C16.7043 8.19629 16.3757 8.11313 16.0725 8.20952C16.0725 8.20955 16.0724 8.20958 16.0723 8.20961L10.9838 9.80244L16.9281 8.41901ZM9.89947 16.5133L9.89928 16.5134C9.81544 16.5395 9.72942 16.5519 9.6456 16.5519C9.42354 16.5519 9.20611 16.4647 9.04414 16.3039L9.04371 16.3034C8.82086 16.0794 8.73892 15.7499 8.83419 15.449L8.83417 15.449L8.9296 15.4789L8.83428 15.4487L10.4271 10.3603C10.4271 10.3602 10.4271 10.3601 10.4272 10.36C10.51 10.0926 10.7186 9.88521 10.9837 9.80247L9.89947 16.5133ZM9.89947 16.5133L14.9884 14.9204M9.89947 16.5133L14.9884 14.9204M14.9884 14.9204C15.2535 14.8376 15.4632 14.6293 15.546 14.3628L14.9884 14.9204ZM23.447 12.361C23.447 6.59277 18.7542 1.9 12.986 1.9C7.21777 1.9 2.525 6.59277 2.525 12.361C2.525 18.1292 7.21777 22.822 12.986 22.822C18.7542 22.822 23.447 18.1292 23.447 12.361ZM4.225 12.361C4.225 7.53122 8.15524 3.6 12.986 3.6C17.8168 3.6 21.747 7.53122 21.747 12.361C21.747 17.1918 17.8168 21.122 12.986 21.122C8.15523 21.122 4.225 17.1918 4.225 12.361ZM10.9421 14.4063L11.9164 11.2917L15.031 10.3165L14.0558 13.4311L10.9421 14.4063Z" fill="#94A3B8" stroke="#94A3B8" stroke-width="0.2"/>
</svg>
